
<svg xmlns="http://www.w3.org/2000/svg" style="display: none;">
      <symbol id="icon-twitter" viewBox="0 0 100 100">
        <path d="M64 13.194a23.1 23.1 0 0 1-7.3 2.1 14.119 14.119 0 0 0 5.5-7.2c-1.9 1.2-6.1 2.9-8.2 2.9a13.782 13.782 0 0 0-9.6-4 13.187 13.187 0 0 0-13.2 13.2 13.576 13.576 0 0 0 .3 2.9c-9.9-.3-21.5-5.2-28-13.7a13.206 13.206 0 0 0 4 17.4c-1.5.2-4.4-.1-5.7-1.4-.1 4.6 2.1 10.7 10.2 12.9-1.6.8-4.3.6-5.5.4.4 3.9 5.9 9 11.8 9-2.1 2.4-9.3 6.9-18.3 5.5a39.825 39.825 0 0 0 20.7 5.8 36.8 36.8 0 0 0 37-38.6v-.5a22.861 22.861 0 0 0 6.3-6.7z"/>
      </symbol>

    <symbol id="icon-apple" viewBox="0 0 384 512">
      <path d="M318.7 268.7c-.2-36.7 16.4-64.4 50-84.8-18.8-26.9-47.2-41.7-84.7-44.6-35.5-2.8-74.3 20.7-88.5 20.7-15 0-49.4-19.7-76.4-19.7C63.3 141.2 4 184.8 4 273.5q0 39.3 14.4 81.2c12.8 36.7 59 126.7 107.2 125.2 25.2-.6 43-17.9 75.8-17.9 31.8 0 48.3 17.9 76.4 17.9 48.6-.7 90.4-82.5 102.6-119.3-65.2-30.7-61.7-90-61.7-91.9zm-56.6-164.2c27.3-32.4 24.8-61.9 24-72.5-24.1 1.4-52 16.4-67.9 34.9-17.5 19.8-27.8 44.3-25.6 71.9 26.1 2 49.9-11.4 69.5-34.3z"/>
    </symbol>
<symbol  id="icon-xmark"   viewBox="0 0 320 512">
<path d="M310.6 361.4c12.5 12.5 12.5 32.75 0 45.25C304.4 412.9 296.2 416 288 416s-16.38-3.125-22.62-9.375L160 301.3L54.63 406.6C48.38 412.9 40.19 416 32 416S15.63 412.9 9.375 406.6c-12.5-12.5-12.5-32.75 0-45.25l105.4-105.4L9.375 150.6c-12.5-12.5-12.5-32.75 0-45.25s32.75-12.5 45.25 0L160 210.8l105.4-105.4c12.5-12.5 32.75-12.5 45.25 0s12.5 32.75 0 45.25l-105.4 105.4L310.6 361.4z"/>
</symbol>
<symbol id="icon-home" viewBox="0 0 576 512">
<path d="M575.8 255.5C575.8 273.5 560.8 287.6 543.8 287.6H511.8L512.5 447.7C512.6 483.2 483.9 512 448.5 512H128.1C92.75 512 64.09 483.3 64.09 448V287.6H32.05C14.02 287.6 0 273.5 0 255.5C0 246.5 3.004 238.5 10.01 231.5L266.4 8.016C273.4 1.002 281.4 0 288.4 0C295.4 0 303.4 2.004 309.5 7.014L416 100.7V64C416 46.33 430.3 32 448 32H480C497.7 32 512 46.33 512 64V185L564.8 231.5C572.8 238.5 576.9 246.5 575.8 255.5L575.8 255.5zM248 192C234.7 192 224 202.7 224 216V296C224 309.3 234.7 320 248 320H328C341.3 320 352 309.3 352 296V216C352 202.7 341.3 192 328 192H248z"/>
  </symbol>
  <symbol id="icon-hashtag" viewBox="0 0 448 512">
<path d="M416 127.1h-58.23l9.789-58.74c2.906-17.44-8.875-33.92-26.3-36.83c-17.53-2.875-33.92 8.891-36.83 26.3L292.9 127.1H197.8l9.789-58.74c2.906-17.44-8.875-33.92-26.3-36.83c-17.53-2.875-33.92 8.891-36.83 26.3L132.9 127.1H64c-17.67 0-32 14.33-32 32C32 177.7 46.33 191.1 64 191.1h58.23l-21.33 128H32c-17.67 0-32 14.33-32 32c0 17.67 14.33 31.1 32 31.1h58.23l-9.789 58.74c-2.906 17.44 8.875 33.92 26.3 36.83C108.5 479.9 110.3 480 112 480c15.36 0 28.92-11.09 31.53-26.73l11.54-69.27h95.12l-9.789 58.74c-2.906 17.44 8.875 33.92 26.3 36.83C268.5 479.9 270.3 480 272 480c15.36 0 28.92-11.09 31.53-26.73l11.54-69.27H384c17.67 0 32-14.33 32-31.1c0-17.67-14.33-32-32-32h-58.23l21.33-128H416c17.67 0 32-14.32 32-31.1C448 142.3 433.7 127.1 416 127.1zM260.9 319.1H165.8L187.1 191.1h95.12L260.9 319.1z"/>
  </symbol>
  <symbol id="icon-bell" viewBox="0 0 448 512">
<path d="M256 32V49.88C328.5 61.39 384 124.2 384 200V233.4C384 278.8 399.5 322.9 427.8 358.4L442.7 377C448.5 384.2 449.6 394.1 445.6 402.4C441.6 410.7 433.2 416 424 416H24C14.77 416 6.365 410.7 2.369 402.4C-1.628 394.1-.504 384.2 5.26 377L20.17 358.4C48.54 322.9 64 278.8 64 233.4V200C64 124.2 119.5 61.39 192 49.88V32C192 14.33 206.3 0 224 0C241.7 0 256 14.33 256 32V32zM216 96C158.6 96 112 142.6 112 200V233.4C112 281.3 98.12 328 72.31 368H375.7C349.9 328 336 281.3 336 233.4V200C336 142.6 289.4 96 232 96H216zM288 448C288 464.1 281.3 481.3 269.3 493.3C257.3 505.3 240.1 512 224 512C207 512 190.7 505.3 178.7 493.3C166.7 481.3 160 464.1 160 448H288z"/>
  </symbol>
  <symbol id="icon-envelope" viewBox="0 0 512 512">
<path d="M0 128C0 92.65 28.65 64 64 64H448C483.3 64 512 92.65 512 128V384C512 419.3 483.3 448 448 448H64C28.65 448 0 419.3 0 384V128zM48 128V150.1L220.5 291.7C241.1 308.7 270.9 308.7 291.5 291.7L464 150.1V127.1C464 119.2 456.8 111.1 448 111.1H64C55.16 111.1 48 119.2 48 127.1L48 128zM48 212.2V384C48 392.8 55.16 400 64 400H448C456.8 400 464 392.8 464 384V212.2L322 328.8C283.6 360.3 228.4 360.3 189.1 328.8L48 212.2z"/>
  </symbol>
    <symbol id="icon-bookmark" viewBox="0 0 384 512">
<path d="M336 0h-288C21.49 0 0 21.49 0 48v431.9c0 24.7 26.79 40.08 48.12 27.64L192 423.6l143.9 83.93C357.2 519.1 384 504.6 384 479.9V48C384 21.49 362.5 0 336 0zM336 452L192 368l-144 84V54C48 50.63 50.63 48 53.1 48h276C333.4 48 336 50.63 336 54V452z"/>
  </symbol>
      <symbol id="icon-rectangle-list"  viewBox="0 0 576 512">
<path d="M128 192C110.3 192 96 177.7 96 160C96 142.3 110.3 128 128 128C145.7 128 160 142.3 160 160C160 177.7 145.7 192 128 192zM200 160C200 146.7 210.7 136 224 136H448C461.3 136 472 146.7 472 160C472 173.3 461.3 184 448 184H224C210.7 184 200 173.3 200 160zM200 256C200 242.7 210.7 232 224 232H448C461.3 232 472 242.7 472 256C472 269.3 461.3 280 448 280H224C210.7 280 200 269.3 200 256zM200 352C200 338.7 210.7 328 224 328H448C461.3 328 472 338.7 472 352C472 365.3 461.3 376 448 376H224C210.7 376 200 365.3 200 352zM128 224C145.7 224 160 238.3 160 256C160 273.7 145.7 288 128 288C110.3 288 96 273.7 96 256C96 238.3 110.3 224 128 224zM128 384C110.3 384 96 369.7 96 352C96 334.3 110.3 320 128 320C145.7 320 160 334.3 160 352C160 369.7 145.7 384 128 384zM0 96C0 60.65 28.65 32 64 32H512C547.3 32 576 60.65 576 96V416C576 451.3 547.3 480 512 480H64C28.65 480 0 451.3 0 416V96zM48 96V416C48 424.8 55.16 432 64 432H512C520.8 432 528 424.8 528 416V96C528 87.16 520.8 80 512 80H64C55.16 80 48 87.16 48 96z"/>
  </symbol>
        <symbol id="icon-user"  viewBox="0 0 448 512">
<path d="M272 304h-96C78.8 304 0 382.8 0 480c0 17.67 14.33 32 32 32h384c17.67 0 32-14.33 32-32C448 382.8 369.2 304 272 304zM48.99 464C56.89 400.9 110.8 352 176 352h96c65.16 0 119.1 48.95 127 112H48.99zM224 256c70.69 0 128-57.31 128-128c0-70.69-57.31-128-128-128S96 57.31 96 128C96 198.7 153.3 256 224 256zM224 48c44.11 0 80 35.89 80 80c0 44.11-35.89 80-80 80S144 172.1 144 128C144 83.89 179.9 48 224 48z"/>
  </symbol>
  <symbol id="icon-ellipsis" viewBox="0 0 448 512" >
      <path d="M120 256C120 286.9 94.93 312 64 312C33.07 312 8 286.9 8 256C8 225.1 33.07 200 64 200C94.93 200 120 225.1 120 256zM280 256C280 286.9 254.9 312 224 312C193.1 312 168 286.9 168 256C168 225.1 193.1 200 224 200C254.9 200 280 225.1 280 256zM328 256C328 225.1 353.1 200 384 200C414.9 
         200 440 225.1 440 256C440 286.9 414.9 312 384 312C353.1 312 328 286.9 328 256z"/>
  </symbol>
  <symbol  id="icon-image" viewBox="0 0 512 512"> 
<path d="M464 64H48C21.49 64 0 85.49 0 112v288c0 26.51 21.49 48 48 48h416c26.51 0 48-21.49 48-48V112c0-26.51-21.49-48-48-48zm-6 336H54a6 6 0 0 1-6-6V118a6 6 0 0 1 6-6h404a6 6 0 0 1 6 6v276a6 6 0 0 1-6 6zM128 152c-22.091 0-40 17.909-40 40s17.909 40 40 40 40-17.909 40-40-17.909-40-40-40zM96 352h320v-80l-87.515-87.515c-4.686-4.686-12.284-4.686-16.971 0L192 304l-39.515-39.515c-4.686-4.686-12.284-4.686-16.971 0L96 304v48z"/>
</symbol>
<symbol  id="icon-globe-americas"  viewBox="0 0 496 512">
<path d="M248 8C111.03 8 0 119.03 0 256s111.03 248 248 248 248-111.03 248-248S384.97 8 248 8zm82.29 357.6c-3.9 3.88-7.99 7.95-11.31 11.28-2.99 3-5.1 6.7-6.17 10.71-1.51 5.66-2.73 11.38-4.77 16.87l-17.39 46.85c-13.76 3-28 4.69-42.65 4.69v-27.38c1.69-12.62-7.64-36.26-22.63-51.25-6-6-9.37-14.14-9.37-22.63v-32.01c0-11.64-6.27-22.34-16.46-27.97-14.37-7.95-34.81-19.06-48.81-26.11-11.48-5.78-22.1-13.14-31.65-21.75l-.8-.72a114.792 114.792 0 0 1-18.06-20.74c-9.38-13.77-24.66-36.42-34.59-51.14 20.47-45.5 57.36-82.04 103.2-101.89l24.01 12.01C203.48 89.74 216 82.01 216 70.11v-11.3c7.99-1.29 16.12-2.11 24.39-2.42l28.3 28.3c6.25 6.25 6.25 16.38 0 22.63L264 112l-10.34 10.34c-3.12 3.12-3.12 8.19 0 11.31l4.69 4.69c3.12 3.12 3.12 8.19 0 11.31l-8 8a8.008 8.008 0 0 1-5.66 2.34h-8.99c-2.08 0-4.08.81-5.58 2.27l-9.92 9.65a8.008 8.008 0 0 0-1.58 9.31l15.59 31.19c2.66 5.32-1.21 11.58-7.15 11.58h-5.64c-1.93 0-3.79-.7-5.24-1.96l-9.28-8.06a16.017 16.017 0 0 0-15.55-3.1l-31.17 10.39a11.95 11.95 0 0 0-8.17 11.34c0 4.53 2.56 8.66 6.61 10.69l11.08 5.54c9.41 4.71 19.79 7.16 30.31 7.16s22.59 27.29 32 32h66.75c8.49 0 16.62 3.37 22.63 9.37l13.69 13.69a30.503 30.503 0 0 1 8.93 21.57 46.536 46.536 0 0 1-13.72 32.98zM417 274.25c-5.79-1.45-10.84-5-14.15-9.97l-17.98-26.97a23.97 23.97 0 0 1 0-26.62l19.59-29.38c2.32-3.47 5.5-6.29 9.24-8.15l12.98-6.49C440.2 193.59 448 223.87 448 256c0 8.67-.74 17.16-1.82 25.54L417 274.25z"/>
</symbol>
<symbol  id="icon-poll-h" viewBox="0 0 448 512">
<path d="M448 432V80c0-26.5-21.5-48-48-48H48C21.5 32 0 53.5 0 80v352c0 26.5 21.5 48 48 48h352c26.5 0 48-21.5 48-48zM112 192c-8.84 0-16-7.16-16-16v-32c0-8.84 7.16-16 16-16h128c8.84 0 16 7.16 16 16v32c0 8.84-7.16 16-16 16H112zm0 96c-8.84 0-16-7.16-16-16v-32c0-8.84 7.16-16 16-16h224c8.84 0 16 7.16 16 16v32c0 8.84-7.16 16-16 16H112zm0 96c-8.84 0-16-7.16-16-16v-32c0-8.84 7.16-16 16-16h64c8.84 0 16 7.16 16 16v32c0 8.84-7.16 16-16 16h-64z"/></symbol>

<symbol  id="icon-smile" viewBox="0 0 496 512">
<path d="M248 8C111 8 0 119 0 256s111 248 248 248 248-111 248-248S385 8 248 8zm0 448c-110.3 0-200-89.7-200-200S137.7 56 248 56s200 89.7 200 200-89.7 200-200 200zm-80-216c17.7 0 32-14.3 32-32s-14.3-32-32-32-32 14.3-32 32 14.3 32 32 32zm160 0c17.7 0 32-14.3 32-32s-14.3-32-32-32-32 14.3-32 32 14.3 32 32 32zm4 72.6c-20.8 25-51.5 39.4-84 39.4s-63.2-14.3-84-39.4c-8.5-10.2-23.7-11.5-33.8-3.1-10.2 8.5-11.5 23.6-3.1 33.8 30 36 74.1 56.6 120.9 56.6s90.9-20.6 120.9-56.6c8.5-10.2 7.1-25.3-3.1-33.8-10.1-8.4-25.3-7.1-33.8 3.1z"/>
</symbol>
<symbol  id="icon-calendar-week" viewBox="0 0 448 512">
<path d="M0 464c0 26.5 21.5 48 48 48h352c26.5 0 48-21.5 48-48V192H0v272zm64-192c0-8.8 7.2-16 16-16h288c8.8 0 16 7.2 16 16v64c0 8.8-7.2 16-16 16H80c-8.8 0-16-7.2-16-16v-64zM400 64h-48V16c0-8.8-7.2-16-16-16h-32c-8.8 0-16 7.2-16 16v48H160V16c0-8.8-7.2-16-16-16h-32c-8.8 0-16 7.2-16 16v48H48C21.5 64 0 85.5 0 112v48h448v-48c0-26.5-21.5-48-48-48z"/></symbol>
<symbol  id="icon-map-marker-alt" viewBox="0 0 384 512">
<path d="M172.268 501.67C26.97 291.031 0 269.413 0 192 0 85.961 85.961 0 192 0s192 85.961 192 192c0 77.413-26.97 99.031-172.268 309.67-9.535 13.774-29.93 13.773-39.464 0zM192 272c44.183 0 80-35.817 80-80s-35.817-80-80-80-80 35.817-80 80 35.817 80 80 80z"/>
</symbol>

</svg>




