
<svg xmlns="http://www.w3.org/2000/svg" style="display: none;">
      <symbol id="icon-twitter" viewBox="0 0 100 100">
        <path d="M64 13.194a23.1 23.1 0 0 1-7.3 2.1 14.119 14.119 0 0 0 5.5-7.2c-1.9 1.2-6.1 2.9-8.2 2.9a13.782 13.782 0 0 0-9.6-4 13.187 13.187 0 0 0-13.2 13.2 13.576 13.576 0 0 0 .3 2.9c-9.9-.3-21.5-5.2-28-13.7a13.206 13.206 0 0 0 4 17.4c-1.5.2-4.4-.1-5.7-1.4-.1 4.6 2.1 10.7 10.2 12.9-1.6.8-4.3.6-5.5.4.4 3.9 5.9 9 11.8 9-2.1 2.4-9.3 6.9-18.3 5.5a39.825 39.825 0 0 0 20.7 5.8 36.8 36.8 0 0 0 37-38.6v-.5a22.861 22.861 0 0 0 6.3-6.7z"/>
      </symbol>

    <symbol id="icon-apple" viewBox="0 0 384 512">
      <path d="M318.7 268.7c-.2-36.7 16.4-64.4 50-84.8-18.8-26.9-47.2-41.7-84.7-44.6-35.5-2.8-74.3 20.7-88.5 20.7-15 0-49.4-19.7-76.4-19.7C63.3 141.2 4 184.8 4 273.5q0 39.3 14.4 81.2c12.8 36.7 59 126.7 107.2 125.2 25.2-.6 43-17.9 75.8-17.9 31.8 0 48.3 17.9 76.4 17.9 48.6-.7 90.4-82.5 102.6-119.3-65.2-30.7-61.7-90-61.7-91.9zm-56.6-164.2c27.3-32.4 24.8-61.9 24-72.5-24.1 1.4-52 16.4-67.9 34.9-17.5 19.8-27.8 44.3-25.6 71.9 26.1 2 49.9-11.4 69.5-34.3z"/>
    </symbol>
<symbol  id="icon-xmark"   viewBox="0 0 320 512">
<path d="M310.6 361.4c12.5 12.5 12.5 32.75 0 45.25C304.4 412.9 296.2 416 288 416s-16.38-3.125-22.62-9.375L160 301.3L54.63 406.6C48.38 412.9 40.19 416 32 416S15.63 412.9 9.375 406.6c-12.5-12.5-12.5-32.75 0-45.25l105.4-105.4L9.375 150.6c-12.5-12.5-12.5-32.75 0-45.25s32.75-12.5 45.25 0L160 210.8l105.4-105.4c12.5-12.5 32.75-12.5 45.25 0s12.5 32.75 0 45.25l-105.4 105.4L310.6 361.4z"/>
</symbol>

  
</svg>




<svg xmlns="http://www.w3.org/2000/svg" ><!--! Font Awesome Pro 6.1.1 by @fontawesome - https://fontawesome.com License - https://fontawesome.com/license (Commercial License) Copyright 2022 Fonticons, Inc. --><path /></svg>